<svg xmlns="http://www.w3.org/2000/svg" viewBox="0 0 335.51 335.5">
  <g>
    <path d="M206.12,5.3c82.79,20,137.38,99.34,125.88,183.15-4.4,32.07-16.83,60.73-38,85.23-32.85,38-74.58,57.69-124.8,58.75a158.29,158.29,0,0,1-71.77-15.56A10.59,10.59,0,0,0,89.9,316c-18.81,4.57-37.68,8.86-56.49,13.44-7.57,1.84-15.3,3.09-22.67,5.74H6.16c-3.61-2.36-4.63-5.54-3.74-9.79,5.51-26.29,10.84-52.62,16.37-78.91a12.91,12.91,0,0,0-1-8.73q-24.08-51-12.32-106.29C24.85,40.88,116-16.44,206.12,5.3Z" style="fill:#7acf6d" />
    <path d="M214.86,143.05a2.87,2.87,0,0,1-.67,3.22l-11.58,13.78-77.52,92c-.93,1.09-2,2-3,3h-1.67c-2.28-1.59-2.46-2.41-1.21-5.38q15.25-36.19,30.49-72.38c.24-.55.45-1.12.77-1.93H122.21c-3.5,0-4.67-1.84-3.12-4.94Q140,128.67,160.9,86.83a3.9,3.9,0,0,1,3.91-2.46q21.84.06,43.67,0c1.4,0,2.7.14,3.42,1.53s.13,2.55-.62,3.72L179.9,139.17c-.38.6-.75,1.22-1.34,2.16H211.9A2.86,2.86,0,0,1,214.86,143.05Z" style="fill:#fff" />
  </g>
</svg>