<?xml version="1.0" standalone="no"?>
<!DOCTYPE svg PUBLIC "-//W3C//DTD SVG 20010904//EN"
 "http://www.w3.org/TR/2001/REC-SVG-20010904/DTD/svg10.dtd">
<svg version="1.0" xmlns="http://www.w3.org/2000/svg"
 width="700.000000pt" height="700.000000pt" viewBox="0 0 700.000000 700.000000"
 preserveAspectRatio="xMidYMid meet">
<metadata>
Created by potrace 1.14, written by Peter Selinger 2001-2017
</metadata>
<g transform="translate(0.000000,700.000000) scale(0.100000,-0.100000)"
fill="#000000" stroke="none">
<path d="M3165 6969 c-973 -100 -1857 -598 -2440 -1374 -380 -506 -610 -1107
-675 -1765 -16 -158 -13 -519 5 -678 43 -376 143 -731 305 -1086 18 -38 34
-92 37 -120 4 -40 -33 -231 -172 -901 -198 -951 -196 -937 -135 -1000 31 -32
39 -35 89 -35 31 0 82 9 114 20 32 10 137 37 235 59 97 23 443 104 767 181
345 83 611 141 640 141 40 0 79 -13 188 -61 375 -165 780 -261 1167 -278 630
-28 1201 86 1725 343 363 178 658 395 965 711 556 573 875 1258 961 2069 19
174 16 539 -5 715 -99 836 -476 1579 -1090 2149 -560 519 -1262 833 -2035 911
-119 12 -528 11 -646 -1z m1245 -1749 c11 -11 20 -28 20 -38 0 -11 -158 -268
-351 -573 l-350 -554 368 -5 367 -5 15 -27 c12 -21 13 -31 3 -50 -6 -12 -440
-531 -965 -1153 -1016 -1205 -978 -1164 -1028 -1119 -10 9 -19 27 -19 38 0 12
150 377 333 811 l333 790 -316 5 c-339 5 -350 7 -350 56 0 32 895 1820 917
1833 12 7 188 10 511 11 479 0 493 -1 512 -20z"/>
</g>
</svg>
